<svg xmlns="http://www.w3.org/2000/svg" viewBox="0 0 512 512" id="rainy-day">
  <g>
    <path fill="#efb422" d="M450.54,152.93a109.22,109.22,0,0,1-27.87,72.72,107,107,0,0,1-16.47,15,7.5,7.5,0,0,1-3,1.32A165.87,165.87,0,0,1,371.76,245C327,245,274.29,225.27,234,151.39a7.51,7.51,0,0,1-.9-4,108.8,108.8,0,0,1,217.46,5.51Z"></path>
    <path fill="#efb422" d="M493 160.47H443.08a7.5 7.5 0 0 1 0-15H493a7.5 7.5 0 0 1 0 15zM270.4 88.66a7.48 7.48 0 0 1-5.27-2.16L235.24 57a7.5 7.5 0 1 1 10.53-10.68l29.89 29.49a7.5 7.5 0 0 1-5.27 12.84zM341.79 59.18a7.5 7.5 0 0 1-7.5-7.5v-43a7.5 7.5 0 0 1 15 0v43A7.5 7.5 0 0 1 341.79 59.18zM416.71 92.48a7.5 7.5 0 0 1-5.3-12.8l31.22-31.22a7.5 7.5 0 0 1 10.61 10.61L422 90.28A7.48 7.48 0 0 1 416.71 92.48z"></path>
    <circle cx="340.79" cy="153.47" r="84.1" fill="#ffca29"></circle>
    <path d="M422.67,225.65a107,107,0,0,1-16.47,15,7.5,7.5,0,0,1-3,1.32A165.87,165.87,0,0,1,371.76,245C327,245,274.29,225.27,234,151.39a7.51,7.51,0,0,1-.9-4,108.16,108.16,0,0,1,4.36-25.56c24.13,7.85,74.3,29.84,90.22,80.38C327.66,202.24,383.73,185.73,422.67,225.65Z" opacity=".1"></path>
    <path fill="#efb422" d="M457.77,244.14a7.47,7.47,0,0,1-4.82-1.75l-32.09-26.91A7.5,7.5,0,0,1,430.5,204l32.09,26.91a7.5,7.5,0,0,1-4.82,13.25Z"></path>
    <path fill="#7abaf9" d="M449.23,309.19c0,54.16-44.74,98.22-99.74,98.22H95.27c-46.19,0-83.77-37-83.77-82.51,0-39.2,28.3-72.93,66.74-80.77a123.7,123.7,0,0,1,39.59-75.7,127.61,127.61,0,0,1,86.25-33.27,127.61,127.61,0,0,1,118.3,79.65,100.94,100.94,0,0,1,79.64,11C431.57,243.81,449.23,275,449.23,309.19Z"></path>
    <path fill="#2196f3" d="M313.32,474.83a35.94,35.94,0,1,1-71.87,0c0-17.58,25.18-47.94,30.23-53.84a7.51,7.51,0,0,1,11.41,0C288.13,426.89,313.32,457.25,313.32,474.83Z"></path>
    <path fill="#0780d3" d="M304.85,498a35.91,35.91,0,0,1-63.4-23.14c0-17.58,25.18-47.94,30.23-53.84a7.5,7.5,0,0,1,2.91-2.09c-8.23,10-27.45,35.15-27.45,50.51A35.9,35.9,0,0,0,304.85,498Z"></path>
    <path fill="#fff" d="M278.75,425.32a171.56,171.56,0,0,1,12,16.59,132.57,132.57,0,0,1,9.86,18c.67,1.6,1.31,3.21,1.83,4.9a24.62,24.62,0,0,1,1.15,5.26,30.25,30.25,0,0,1-.77,10.54,25.7,25.7,0,0,1-4.7,9.39,32.55,32.55,0,0,1-7.65,6.89,41.4,41.4,0,0,0,6.46-7.73,26.59,26.59,0,0,0,3.62-9.07,30.72,30.72,0,0,0,.23-9.72,35.83,35.83,0,0,0-2.93-9.28c-1.3-3.07-2.79-6.09-4.34-9.08s-3.17-6-4.77-8.94Z" opacity=".8"></path>
    <path fill="#6ab0ea" d="M313.38 202.81a123.53 123.53 0 0 0-11.9-22.92 123.51 123.51 0 0 1 15 22.1C315.44 202.25 314.41 202.52 313.38 202.81zM449.23 309.19c0 54.16-44.74 98.22-99.74 98.22H95.27A84.08 84.08 0 0 1 23.62 367.6a84.11 84.11 0 0 0 62.65 27.81H340.49c55 0 99.74-44.06 99.74-98.22a96.61 96.61 0 0 0-15.09-52A96.61 96.61 0 0 1 449.23 309.19z"></path>
    <path fill="#2196f3" d="M265.1,402.73a35.94,35.94,0,1,1-71.87,0c0-17.58,25.18-47.94,30.23-53.84a7.51,7.51,0,0,1,11.41,0C239.91,354.79,265.1,385.15,265.1,402.73Z"></path>
    <path fill="#0780d3" d="M256.64,425.87a35.91,35.91,0,0,1-63.4-23.14c0-17.58,25.18-47.94,30.23-53.84a7.5,7.5,0,0,1,2.91-2.09c-8.23,10-27.45,35.15-27.45,50.51a35.9,35.9,0,0,0,57.71,28.56Z"></path>
    <path fill="#fff" d="M230.53,353.22a171.56,171.56,0,0,1,12,16.59,132.57,132.57,0,0,1,9.86,18c.67,1.6,1.31,3.21,1.83,4.9a24.62,24.62,0,0,1,1.15,5.26,30.25,30.25,0,0,1-.77,10.54,25.7,25.7,0,0,1-4.7,9.39,32.55,32.55,0,0,1-7.65,6.89,41.4,41.4,0,0,0,6.46-7.73,26.59,26.59,0,0,0,3.62-9.07,30.72,30.72,0,0,0,.23-9.72,35.83,35.83,0,0,0-2.93-9.28c-1.3-3.07-2.79-6.09-4.34-9.08s-3.17-6-4.77-8.94Z" opacity=".8"></path>
    <path fill="#2196f3" d="M213.4,473.45a35.94,35.94,0,1,1-71.87,0c0-17.58,25.18-47.94,30.23-53.84a7.51,7.51,0,0,1,11.41,0C188.2,425.51,213.4,455.87,213.4,473.45Z"></path>
    <path fill="#0780d3" d="M204.93,496.59a35.91,35.91,0,0,1-63.4-23.14c0-17.58,25.18-47.94,30.23-53.84a7.5,7.5,0,0,1,2.91-2.09c-8.23,10-27.45,35.15-27.45,50.51a35.9,35.9,0,0,0,57.71,28.56Z"></path>
    <path fill="#fff" d="M178.82,423.94a171.56,171.56,0,0,1,12,16.59,132.57,132.57,0,0,1,9.86,18c.67,1.6,1.31,3.21,1.83,4.9a24.62,24.62,0,0,1,1.15,5.26,30.25,30.25,0,0,1-.77,10.54,25.7,25.7,0,0,1-4.7,9.39,32.55,32.55,0,0,1-7.65,6.89,41.4,41.4,0,0,0,6.46-7.73,26.59,26.59,0,0,0,3.62-9.07,30.72,30.72,0,0,0,.23-9.72,35.83,35.83,0,0,0-2.93-9.28c-1.3-3.07-2.79-6.09-4.34-9.08s-3.17-6-4.77-8.94Z" opacity=".8"></path>
    <path fill="#2196f3" d="M278.75,240.6a93.14,93.14,0,0,1,50-31,98.22,98.22,0,0,1,105.73,42.46,104.55,104.55,0,0,1,7.12,13.29,106.29,106.29,0,0,1,4.91,14.18,101,101,0,0,1,2.55,14.7,94.83,94.83,0,0,1,.13,14.8A105.68,105.68,0,0,0,430,255.17,100.27,100.27,0,0,0,329.93,215,105.58,105.58,0,0,0,278.75,240.6Z"></path>
    <path fill="#6ab0ea" d="M204.08,135.16q6.06,0,12,.55a127.39,127.39,0,0,0-74.27,32.72,123.7,123.7,0,0,0-39.59,75.7C63.8,252,35.5,285.7,35.5,324.9c0,45.49,37.58,82.51,83.77,82.51h-24c-46.19,0-83.77-37-83.77-82.51,0-39.2,28.3-72.93,66.74-80.77a123.7,123.7,0,0,1,39.59-75.7A127.61,127.61,0,0,1,204.08,135.16Z"></path>
    <path fill="#2196f3" d="M11,324.53a71.28,71.28,0,0,1,.76-20.07,76,76,0,0,1,6.38-19.35q1.14-2.3,2.39-4.55c.88-1.47,1.73-3,2.72-4.37A79.19,79.19,0,0,1,29.47,268,81.59,81.59,0,0,1,45,254.33a80.28,80.28,0,0,1,18.51-9.15,77.52,77.52,0,0,1,20.18-3.94,72.39,72.39,0,0,1,39.17,8.41,92.89,92.89,0,0,0-38.64-3,89.18,89.18,0,0,0-18.47,4.76c-1.47.59-2.95,1.18-4.4,1.81s-2.89,1.3-4.27,2.08l-2.11,1.1-2.05,1.19c-1.39.76-2.68,1.69-4,2.53a81,81,0,0,0-7.57,5.74,85.45,85.45,0,0,0-6.91,6.53,89.93,89.93,0,0,0-11.46,15.26c-.78,1.4-1.62,2.77-2.31,4.22L19.53,294c-.32.74-.67,1.46-1,2.19-.71,1.45-1.25,3-1.88,4.46s-1.09,3-1.59,4.59A101.26,101.26,0,0,0,11,324.53Z"></path>
    <path fill="#eefaff" d="M286.45 251.32a83 83 0 0 1 47.43-25.8 85.2 85.2 0 0 1 91.54 48.14 82.95 82.95 0 0 1 7.6 40.21 86.23 86.23 0 0 1-2 13.49 101.62 101.62 0 0 0 .91-13.52 86.89 86.89 0 0 0-1.12-13.42 79.63 79.63 0 0 0-3.13-13A87.45 87.45 0 0 0 422.6 275a86.48 86.48 0 0 0-15.46-21.57 84.15 84.15 0 0 0-10-8.76 87.89 87.89 0 0 0-11.23-7.06 83.89 83.89 0 0 0-25.06-8.51l-3.28-.55c-1.1-.14-2.2-.24-3.31-.36-2.2-.29-4.43-.3-6.64-.41-1.11-.07-2.22 0-3.33 0s-2.22 0-3.33.11c-2.21.19-4.44.28-6.64.65A89 89 0 0 0 286.45 251.32zM103.47 223.46a97.32 97.32 0 0 1 10.2-22.27A103.72 103.72 0 0 1 129.11 182a100.25 100.25 0 0 1 19.66-15.05A107.36 107.36 0 0 1 171.5 157a109.68 109.68 0 0 1 24.44-4.24 103.8 103.8 0 0 1 24.7 1.69 99.37 99.37 0 0 1 44.25 20.5 112.57 112.57 0 0 0-44.78-17.42 108.34 108.34 0 0 0-47.47 3.3 106.52 106.52 0 0 0-22 9.38 104.76 104.76 0 0 0-19.41 14 112.44 112.44 0 0 0-15.95 18A115.09 115.09 0 0 0 103.47 223.46z"></path>
  </g>
</svg>
